<svg width="242" height="242" viewBox="0 0 242 242" fill="none" xmlns="http://www.w3.org/2000/svg">
<path d="M183.218 220.05H151.107V199.273H183.218C187.476 199.273 191.559 197.581 194.57 194.57C197.581 191.559 199.273 187.476 199.273 183.218V151.107H220.05V183.218C220.039 192.983 216.155 202.345 209.25 209.25C202.345 216.155 192.983 220.039 183.218 220.05ZM220.05 90.6644H199.273V58.5541C199.273 54.296 197.581 50.2123 194.57 47.2014C191.559 44.1905 187.476 42.4989 183.218 42.4989H151.107V21.7217H183.218C192.983 21.7329 202.345 25.6171 209.25 32.5221C216.155 39.427 220.039 48.789 220.05 58.5541V90.6644ZM90.6644 220.05H58.5541C48.789 220.039 39.427 216.155 32.5221 209.25C25.6171 202.345 21.7329 192.983 21.7217 183.218V151.107H42.4989V183.218C42.4989 187.476 44.1905 191.559 47.2014 194.57C50.2123 197.581 54.296 199.273 58.5541 199.273H90.6644V220.05ZM42.4989 90.6644H21.7217V58.5541C21.7329 48.789 25.6171 39.427 32.5221 32.5221C39.427 25.6171 48.789 21.7329 58.5541 21.7217H90.6644V42.4989H58.5541C54.296 42.4989 50.2123 44.1905 47.2014 47.2014C44.1905 50.2123 42.4989 54.296 42.4989 58.5541V90.6644Z" fill="#9CB2A8"/>
<path d="M169.601 69.8107C169.601 68.6592 169.144 67.5549 168.33 66.7407C167.516 65.9265 166.413 65.4691 165.262 65.4691H111.374C105.473 65.4691 102.696 70.9829 102.696 76.1928C102.732 95.4902 101.457 114.768 98.8778 133.892C98.8374 134.142 98.7113 134.369 98.5212 134.536C98.3311 134.702 98.0889 134.797 97.8364 134.804H84.8199C76.1423 134.804 75.1877 143.791 74.6671 149.131C74.1464 157.684 72.9749 158.856 69.8076 158.856C68.6569 158.856 67.5533 159.313 66.7396 160.128C65.9259 160.942 65.4688 162.046 65.4688 163.198C65.4688 164.349 65.9259 165.453 66.7396 166.267C67.5533 167.082 68.6569 167.539 69.8076 167.539H119.704C130.031 167.539 131.506 157.293 132.374 151.215C133.111 146.092 133.675 143.661 134.89 143.661H136.669C136.898 143.658 137.122 143.728 137.31 143.86C137.497 143.993 137.637 144.181 137.71 144.399C137.971 145.223 138.231 146.352 138.405 147.177C139.272 151.258 140.834 158.856 150.076 158.856C167.735 158.856 169.601 108.754 169.601 87.3071V69.8107ZM117.795 123.038C116.932 123.038 116.104 122.695 115.494 122.084C114.884 121.474 114.541 120.646 114.541 119.782C114.541 118.918 114.884 118.09 115.494 117.48C116.104 116.869 116.932 116.526 117.795 116.526H143.828C144.691 116.526 145.519 116.869 146.129 117.48C146.739 118.09 147.082 118.918 147.082 119.782C147.082 120.646 146.739 121.474 146.129 122.084C145.519 122.695 144.691 123.038 143.828 123.038H117.795ZM116.71 85.0495C116.71 84.1859 117.053 83.3577 117.663 82.7471C118.274 82.1364 119.101 81.7934 119.964 81.7934H128.642C129.505 81.7934 130.333 82.1364 130.943 82.7471C131.553 83.3577 131.896 84.1859 131.896 85.0495C131.896 85.9131 131.553 86.7413 130.943 87.352C130.333 87.9626 129.505 88.3057 128.642 88.3057H119.964C119.101 88.3057 118.274 87.9626 117.663 87.352C117.053 86.7413 116.71 85.9131 116.71 85.0495ZM145.997 105.672H121.049C120.186 105.672 119.358 105.329 118.748 104.718C118.138 104.108 117.795 103.279 117.795 102.416C117.795 101.552 118.138 100.724 118.748 100.113C119.358 99.5026 120.186 99.1596 121.049 99.1596H145.997C146.861 99.1596 147.688 99.5026 148.298 100.113C148.909 100.724 149.252 101.552 149.252 102.416C149.252 103.279 148.909 104.108 148.298 104.718C147.688 105.329 146.861 105.672 145.997 105.672ZM123.739 149.956C122.655 157.64 121.787 158.856 119.661 158.856H83.3013C83.1347 158.847 82.9716 158.804 82.8223 158.729C82.673 158.655 82.5407 158.55 82.4336 158.422C82.3702 158.278 82.3375 158.123 82.3375 157.966C82.3375 157.809 82.3702 157.654 82.4336 157.51C83.0268 155.101 83.4187 152.647 83.6051 150.173C83.6497 147.964 84.0602 145.778 84.8199 143.704H123.869C124.033 143.706 124.194 143.744 124.341 143.817C124.487 143.89 124.615 143.995 124.715 144.125C124.816 144.254 124.885 144.405 124.919 144.565C124.953 144.725 124.95 144.891 124.911 145.05C124.217 146.917 123.956 148.436 123.739 149.956Z" fill="#9CB2A9"/>
</svg>
